<svg t="1704997266203" class="icon" viewBox="0 0 1024 1024" version="1.1" xmlns="http://www.w3.org/2000/svg" p-id="1275" width="16" height="16"><path d="M159 511.58q0-199.84 0.06-399.68c0-6.77 0.12-13.7 1.48-20.28 3.63-17.42 15.46-27.33 33.4-27.35q210.69-0.21 421.37-0.1c10.88 0 19.59 4.4 27.18 12Q746.26 180 850.23 283.7c11.82 11.77 14.78 26 14.77 41.9q-0.21 249.66-0.09 499.3c0 31.07 0.12 62.14 0 93.22-0.13 29.27-12.77 41.69-42.23 41.69H200.83c-29.19 0-41.75-12.56-41.77-42.16q-0.12-203.02-0.06-406.07z m75.17 0.44q0 180-0.19 360.07c0 10.8 2.63 14.89 14.22 14.87q263.65-0.5 527.31 0c11.16 0 14.78-3.31 14.64-14.54-0.53-43.36-0.21-86.73-0.21-130.1V414.46c0-19.19 0-19.2-19.76-19.2-63.42 0-126.83 0.1-190.25-0.07-26.06-0.06-41.17-13.14-46.18-38.38a109.15 109.15 0 0 1-1.75-21.53V154.16c0-16.86-0.06-16.9-16.94-16.91H252c-17.78 0-17.81 0-17.81 18.52q-0.03 178.13-0.01 356.23zM602.74 145.5c-0.17 2.94-0.52 6.3-0.52 9.65 0 51.87 0.28 103.75-0.26 155.62-0.12 11.52 3.92 14.39 14.79 14.3 52.72-0.46 105.44-0.18 158.16-0.29 3.05 0 6.8 1.6 7.52 0.47z" fill="#333333" p-id="1276"></path><path d="M320.92 631.57c14.92-3.3 26.48 4.61 37.06 18.68 26.06 34.67 53.7 68.14 80.28 102.42 6.49 8.38 10.44 8.59 17.13 0.07q96.09-122.49 192.73-244.56c10-12.65 41.41-20.75 55.66-13.42 9.22 4.73 3.18 10.92-0.45 15.61-13.82 17.81-28.13 35.24-42.09 52.94q-98 124.25-195.86 248.59c-11.74 14.91-24.44 15.09-36.58-0.23q-64.6-81.52-129-163.19c-2.87-3.62-7.36-7.09-5.38-12.16 2.34-6 8.48-4.45 13.42-4.72 3.39-0.18 6.8-0.03 13.08-0.03z" fill="#333333" p-id="1277"></path></svg>